/* XPM */
static char * gnome_logo_xpm[] = {
"47 48 65 1",
" 	c #965896589658",
".	c #FFFFFFFFFFFF",
"X	c #000000000000",
"o	c #28A228A22081",
"O	c #79E779E779E7",
"+	c #596555555144",
"@	c #51444D344924",
"#	c #DF7DDB6CDF7D",
"$	c #FFFFF7DEF7DE",
"%	c #D75CCB2BC71B",
"&	c #8E38820779E7",
"*	c #104010401040",
"=	c #D75CCB2BCF3C",
"-	c #F7DEF3CEF7DE",
";	c #96588A288617",
":	c #596559655144",
">	c #BEFBBAEABEFB",
",	c #AEBAAAAAA699",
"<	c #41033CF338E3",
"1	c #618561856185",
"2	c #EFBEEBADEFBE",
"3	c #CF3CC30BBEFB",
"4	c #9E7992488E38",
"5	c #208118611861",
"6	c #38E338E330C2",
"7	c #F7DEEBADEFBE",
"8	c #D75CD34CCF3C",
"9	c #AEBA9E799658",
"0	c #492445144103",
"q	c #AEBAA2899E79",
"w	c #E79DE38DE79D",
"e	c #C71BBAEABEFB",
"r	c #8E388A288E38",
"t	c #A6999A699658",
"y	c #208120811861",
"u	c #AEBAAAAAAEBA",
"i	c #EFBEE79DE79D",
"p	c #C71BBAEAB6DA",
"a	c #E79DE38DDF7D",
"s	c #DF7DD34CCF3C",
"d	c #69A669A66185",
"f	c #DF7DDB6CD75C",
"g	c #BEFBB2CAAEBA",
"h	c #28A220812081",
"j	c #8E3886178617",
"k	c #618561855965",
"l	c #71C669A66185",
"z	c #B6DAB2CAB6DA",
"x	c #861779E771C6",
"c	c #69A661855965",
"v	c #186118611861",
"b	c #30C230C228A2",
"n	c #B6DAAAAAA699",
"m	c #38E330C228A2",
"M	c #CF3CC71BC71B",
"N	c #D75CD34CD75C",
"B	c #F7DEF3CEEFBE",
"V	c #E79DDB6CDF7D",
"C	c #C71BB2CAAEBA",
"Z	c #79E771C669A6",
"A	c #186114511040",
"S	c #30C228A228A2",
"D	c #9E799A699E79",
"F	c #B6DAB2CAAEBA",
"G	c #C71BBAEAAEBA",
"                                               ",
" ............................................. ",
" ............................................. ",
" ..XXXXXXXXXXXXXXXXXXXXXXXXXXXXXXXXXXXXXXXXX.. ",
" ..XXXXXXXXXXXXXXXXXXXXXXXXXXXXXXXXXXXXXXXXX.. ",
" ..XXXXXXXXXXXXXXXXXXXoO+XXXXXXXXXXXXXXXXXXX.. ",
" ..XXXXXXXXXXXXXXXXXX@#$%&*XXXXXXXXXXXXXXXXX.. ",
" ..XXXXXXXXXXXXXXXXX*=$-=;@XXXXXXXXXXXXXXXXX.. ",
" ..XXXXXXXXXXX:>,<XX1--234:5XXXXXXXXXXXXXXXX.. ",
" ..XXXXXXXXXX627890Xq27we;0XXXXXXXXXXXXXXXXX.. ",
" ..XXXXXXXXXXr2$=t&yu2i%pt6XXXXXXXXXXXXXXXXX.. ",
" ..XXXXXXXXXXqa#s4&dqf83g;hXXXXXXXXXXXXXXXXX.. ",
" ..XXXXXXXXXXj%3g&<+kpggtlXXXXXXXXXXXXXXXXXX.. ",
" ..XXXXXXXXXX6zqj<XXXx;&cyXXXXXXXXXXXXXXXXXX.. ",
" ..XXXXXXX+roXcx6XXXXol1hXXXXXXXXXXXXXXXXXXX.. ",
" ..XXXXXXvw-ebXoXXXXXX*+:6*XXXXXXXXXXXXXXXXX.. ",
" ..XXXXXX@-73x*XXXXXXXo01@b*XXXXXXXXXXXXXXXX.. ",
" ..XXXXXXd2=n1vXXXXXd>w-7i%g;6XXXXXXXXXXXXXX.. ",
" ..XXXXXXmMejmXXXXoz--272N8%gjhXXXXXXXXXXXXX.. ",
" ..XXXXXXX4qcXXyX6N-7BwVw==MqdhXXXXXXXXXXXXX.. ",
" ..XXXXXXXoO<XXvy8--2N=3pe,C4<XXXXXXXXXXXXXX.. ",
" ..XXXXXXy6XvX*Xz$B2s%33%3grZXXXXXXXXXXXXXXX.. ",
" ..XXXXXq-2n<XX1-$-f3pp33p390XXXXXXXXXXXXXXX.. ",
" ..XXXX+--wgxbXz--i%3M33%3g&AXXXXXXXXXXXXXXX.. ",
" ..XXXXbM3M4ck*#-i=333333g;<XXXXXXXXXXXXXXXX.. ",
" ..XXXXXd4x@X+SV7w%epp3ptxbXXXXXXXXXXXXXXXXX.. ",
" ..XXXXXX6mXX66wiN%3npq;0XXXXXXXXXXXXXXXXXXX.. ",
" ..XXXXXXXXXXv6i2f8%3q;bXXXXXXXXXXXXXXXXXXXX.. ",
" ..XXXXXXXXXXXbNiV%33,:XXXXXXXXkDF,r0XXXXXXX.. ",
" ..XXXXXXXXXXXo8aw%3p4hXXXXXXdN-B22sglXXXXXX.. ",
" ..XXXXXXXXXXXXeaa83n&XXXXXX6i--7iw8qlyXXXXX.. ",
" ..XXXXXXXXXXXXnVf=3GZXXXXXX<N8VV8%p;SXXXXXX.. ",
" ..XXXXXXXXXXXXjfV%3g&yXXXXXXlp%333qlXXXXXXX.. ",
" ..XXXXXXXXXXXX@sfN3Ct:SXXXXXXZ%N%pq@XXXXXXX.. ",
" ..XXXXXXXXXXXXvz%%3Cg4&c*XXXXXMw%ptSXXXXXXX.. ",
" ..XXXXXXXXXXXXXOg3M3pg,gn4jDuN-i%pxXXXXXXXX.. ",
" ..XXXXXXXXXXXXX0ngM33ppp%#aw-$-a=q@XXXXXXXX.. ",
" ..XXXXXXXXXXXXXX4n333p3%8sfi72asp&AXXXXXXXX.. ",
" ..XXXXXXXXXXXXXX0t,p333p%p%Mfs%e90XXXXXXXXX.. ",
" ..XXXXXXXXXXXXXXXlt9,G3%833%p3MgZXXXXXXXXXX.. ",
" ..XXXXXXXXXXXXXXX*l;t,C3%333%%G4oXXXXXXXXXX.. ",
" ..XXXXXXXXXXXXXXXX*cx;tqgggpp,;<XXXXXXXXXXX.. ",
" ..XXXXXXXXXXXXXXXXXX0kcZ;;44;lbXXXXXXXXXXXX.. ",
" ..XXXXXXXXXXXXXXXXXXXXXXXXXXXXXXXXXXXXXXXXX.. ",
" ..XXXXXXXXXXXXXXXXXXXXXXXXXXXXXXXXXXXXXXXXX.. ",
" ............................................. ",
" ............................................. ",
"                                               "};
