/* XPM */
static char*mountcd[]={
"38 38 61 1",
"g c #e7e3e7",
"H c #8e8a8e",
"T c #8e9296",
"d c #efebef",
"j c #c7becf",
"G c #9e9a9e",
"Z c #717586",
"P c #a6a2a6",
"X c #a6aaae",
"t c #aeaaae",
"u c #aeb2b6",
"h c #dfdfe7",
"m c #bebabe",
"e c #e7e7ef",
"S c #968e96",
"c c #efeff7",
"I c #c7c3be",
"b c #d7d3df",
"J c #414141",
"O c #b6b6be",
"N c #86828e",
"f c #e7e3ef",
"Q c #8e8a96",
"L c #968a96",
"R c #96929e",
"K c #9e9aa6",
"A c #616161",
"w c #a69aa6",
"x c #a6a2ae",
"s c #dfdbd7",
"q c #aeaab6",
"M c #797979",
"6 c #202020",
"y c #494d51",
"r c #efebe7",
"E c #595559",
"Y c #9696a6",
"a c #cfc7c7",
"2 c #a6a29e",
"l c #cfcfcf",
"W c #aeaaa6",
"B c #716d71",
"z c #868686",
". c None",
"# c #bebac7",
"0 c #868296",
"4 c #8e8296",
"V c #8e8a9e",
"k c #bec3c7",
"v c #c7c3c7",
"U c #9692a6",
"5 c #383438",
"o c #cfcbcf",
"1 c #9e9aae",
"n c #d7d3d7",
"3 c #a6a2b6",
"D c #696971",
"F c #b6aeae",
"i c #dfdbdf",
"C c #868286",
"p c #b6b6b6",
".............#abcdeffghhijk#..........",
"............ffcdddeggfgiibb##.........",
"..........#iccdddfgggggghiillm#.......",
"........#bfcddeeeggggghiiiinojo#......",
"......poccdddeeggggghgiiibnnnlnqp.....",
".....#bccdddgrggggggiiiisnblnloqtu....",
"....#odcdderrgogangvngnsavnoloojqwx...",
"....#fcddgdgiyzABAtCylyDCEFnoooavqG...",
"...FcddddfrglyvBtzHIEmAyCBJooajvm#mzK.",
"..q#cdrdrgfegpHnCGbiGitktpGovjvvvmmCL.",
"..qbddrefrgggghggiibnnnnloovavv#mmmtM.",
".q#ddfrgdgggghgiiiibnlnolojvvvmmmmqqNM",
"u#fceeergggghiiiiibnnnooovvvkmmOOqqqtA",
"FjcdegeggggggigibjpKxwP#ovvmImmOOqFttQ",
"qbddrgggggghiiibPRSRTRTGqvvImmmqqqFtFG",
"qfdeeegggggiiiipRRRUSVRVLxvmmOmqquFttW",
"qedggggggigiilxRRRUTRSVVVVQ#mqqFttttxW",
"qedgggggiiiibvPRRVT...RQQQQvqqqttttXWP",
"qfrgomGtRqttbpTRTR.....QVQQ#pGSCMBHCSP",
"tfggqvqutPFtnjTSRV.....YQVQqqPzHCHCCCP",
"XgfgItPqtWttnkSTQS.....KVzQpqSCzCCZCPP",
"qhgghniivomInpLVSVV...Y0QVz#FPGGSRPPPG",
"xghggiiittuPlvuSVVL1x11VQzQvtGHMHzP22K",
"xiiisibnnnnloovpQQQVzVV0QHqttXWPPPPGGP",
"3#niisnbnnoooovjQQVQVzQHNqotPWPPPPP2Gz",
"xjnbbsnnnooovvvIvKHzV4zRvpttPPP2PKGKGM",
".xnlinnnoooovvvvmjjpqqqvqttPWPPPK2GwG5",
"..KlnnnnooovvmvmmOqqqFqtttPPPPPKwGGwEJ",
"..xOlnooovvvvmmmqqquttttXPPPPPK2GGwC6B",
"...wmlloavvImmmOOGt2PPWSWWPPPPKGGGG5E.",
"....pmoovvvI#mmpSFzyECAzPP22KG2GwGG6..",
".....pXqvmvmmOqqCHLPAM2HPPPK2GGGGA5...",
"......qPvmmmqOqFCHzHGAGSPKPPGwGGD5....",
".......xKmmOqqqFzHHWSAqC2PGGGGGE5.....",
"........TRmqFqFtHSGzCGCGKPGwGwG6......",
"..........QMPFttXWxPPPP2GGwCE6........",
"...........QDDHGtPPPPPKKGzM6y.........",
"............ZAEENCCZMBMBJ66..........."};
