/* XPM */
static char*umountcd[]={
"38 38 57 1",
"g c #e7e3e7",
"C c #8e8a8e",
"2 c #8e9296",
"d c #efebef",
"j c #c7becf",
"G c #9e9a9e",
"V c #717586",
"R c #a6a2a6",
"Q c #a6aaae",
"x c #aeaaae",
"K c #aeb2b6",
"h c #dfdfe7",
"n c #bebabe",
"e c #e7e7ef",
"U c #968e96",
"c c #efeff7",
"D c #c7c3be",
"b c #d7d3df",
"0 c #414141",
"L c #b6b6be",
"J c #86828e",
"f c #e7e3ef",
"N c #8e8a96",
"H c #968a96",
"S c #96929e",
"E c #9e9aa6",
"v c #616161",
"Y c #a69aa6",
"P c #a6a2ae",
"r c #dfdbd7",
"F c #aeaab6",
"I c #797979",
"1 c #202020",
"t c #494d51",
"q c #efebe7",
"A c #595559",
"a c #cfc7c7",
"W c #a6a29e",
"m c #cfcfcf",
"O c #aeaaa6",
"w c #716d71",
"u c #868686",
". c None",
"# c #bebac7",
"T c #8e8a9e",
"k c #bec3c7",
"s c #c7c3c7",
"Z c #383438",
"p c #cfcbcf",
"l c #ff0000",
"o c #d7d3d7",
"X c #a6a2b6",
"z c #696971",
"B c #b6aeae",
"i c #dfdbdf",
"M c #b6b6b6",
"y c #868286",
".............#abcdeffghhijk#..........",
"..llll......ffcdddeggfgiibb##...llll..",
".llllll...#iccdddfgggggghiimmn#llllll.",
".lllllll#bfcddeeeggggghiiiiopjlllllll.",
".llllllllcdddeeggggghgiiibooollllllll.",
".lllllllllddgqggggggiiiirobmlllllllll.",
"..lllllllllqqgpgaogsogorasolllllllll..",
"...lllllllllituvwvxytmtzyAlllllllll...",
"...BllllllllltswxuCDAnvtylllllllllnuE.",
"..F#clllllllllCoyGbiGixklllllllllnnyH.",
"..FbddlllllllllggiibooolllllllllnnnxI.",
".F#ddfqllllllllliiibomlllllllllnnnFFJI",
"K#fceeeqllllllllliboolllllllllnLLFFFxv",
"BjcdegegglllllllllMElllllllllnnLLFBxxN",
"FbddqgggggllllllllllllllllllnnnFFFBxBG",
"FfdeeegggggllllllllllllllllnnLnFFKBxxO",
"FedggggggigillllllllllllllN#nFFBxxxxPO",
"FedgggggiiiibllllllllllllNNsFFFxxxxQOR",
"FfqgpnGxSFxxbMllllllllllTNN#MGUyIwCyUR",
"xfggFsFKxRBxojllllllllllNTNFFRuCyCyyyR",
"QgfgDxRFxOxxolllllllllllluNMFUyuyyVyRR",
"FhgghoiispnDllllllllllllllu#BRGGUSRRRG",
"PghggiiixxKllllllllllllllllsxGCICuRWWE",
"PiiiribooollllllllllllllllllxQORRRRGGR",
"X#oiirobolllllllllTNlllllllllORRRRRWGu",
"PjobbroolllllllllECuTlllllllllRWREGEGI",
".PomioolllllllllnjjMFFlllllllllREWGYGZ",
"..EmoolllllllllnnLFFFBFlllllllllYGGYA0",
"..PLmlllllllllnnFFFKxxxxlllllllllGYy1w",
"...YlllllllllnnLLGxWRROUOlllllllllGZA.",
"...lllllllll#nnMUButAyvuRRlllllllll1..",
"..lllllllllnnLFFyCHRvIWCRRRlllllllll..",
".lllllllllnnFLFByCuCGvGURERRlllllllll.",
"lllllllllnnLFFFBuCCOUvFyWRGGGlllllllll",
"llllllll2SnFBFBxCUGuyGyGERGYGYllllllll",
"lllllll...NIRBxxQOPRRRRWGGYyA1.lllllll",
"llllll.....NzzCGxRRRRREEGuI1t...llllll",
".llll.......VvAAJyyVIwIw011......llll."};
